<svg xmlns="http://www.w3.org/2000/svg" width="110.204" height="31.241" viewBox="0 0 110.204 31.241" fill="none">
  <path d="M 25.213 15.34 C 25.213 18.762 24.555 21.624 23.238 23.924 C 21.936 26.211 20.044 27.936 17.564 29.1 C 15.083 30.25 12.097 30.825 8.605 30.825 L 0 30.825 L 0 0.436 L 9.541 0.436 C 12.728 0.436 15.492 1.005 17.834 2.141 C 20.176 3.263 21.991 4.933 23.28 7.15 C 24.569 9.353 25.213 12.083 25.213 15.34 Z M 18.52 15.506 C 18.52 13.261 18.187 11.418 17.522 9.977 C 16.871 8.522 15.901 7.448 14.612 6.755 C 13.337 6.062 11.758 5.716 9.873 5.716 L 6.444 5.716 L 6.444 25.504 L 9.208 25.504 C 12.354 25.504 14.688 24.666 16.213 22.989 C 17.751 21.312 18.52 18.818 18.52 15.506 Z" fill="currentColor" fill-rule="nonzero"></path>
  <path d="M 44.341 22.386 C 44.341 24.187 43.904 25.753 43.031 27.084 C 42.158 28.414 40.883 29.439 39.207 30.16 C 37.544 30.88 35.521 31.241 33.137 31.241 C 32.084 31.241 31.052 31.171 30.04 31.033 C 29.042 30.894 28.079 30.693 27.151 30.43 C 26.236 30.153 25.363 29.813 24.532 29.412 L 24.532 23.425 C 25.973 24.063 27.47 24.638 29.022 25.151 C 30.574 25.663 32.112 25.92 33.636 25.92 C 34.689 25.92 35.534 25.781 36.172 25.504 C 36.823 25.227 37.294 24.846 37.585 24.361 C 37.876 23.876 38.022 23.321 38.022 22.698 C 38.022 21.936 37.765 21.284 37.253 20.744 C 36.74 20.204 36.033 19.698 35.133 19.227 C 34.246 18.755 33.241 18.25 32.119 17.709 C 31.412 17.377 30.643 16.975 29.811 16.504 C 28.98 16.019 28.19 15.43 27.442 14.737 C 26.694 14.044 26.077 13.206 25.592 12.222 C 25.121 11.224 24.885 10.032 24.885 8.647 C 24.885 6.832 25.301 5.28 26.132 3.991 C 26.964 2.702 28.149 1.718 29.687 1.039 C 31.239 0.346 33.068 0 35.174 0 C 36.754 0 38.257 0.187 39.685 0.561 C 41.126 0.921 42.629 1.448 44.195 2.141 L 42.117 7.15 C 40.717 6.582 39.463 6.146 38.354 5.841 C 37.246 5.522 36.116 5.363 34.966 5.363 C 34.163 5.363 33.477 5.494 32.909 5.758 C 32.34 6.007 31.911 6.367 31.62 6.838 C 31.329 7.296 31.183 7.829 31.183 8.439 C 31.183 9.159 31.391 9.769 31.807 10.268 C 32.236 10.753 32.874 11.224 33.719 11.681 C 34.578 12.139 35.645 12.672 36.92 13.282 C 38.472 14.016 39.795 14.785 40.89 15.589 C 41.999 16.379 42.851 17.314 43.447 18.395 C 44.043 19.462 44.341 20.792 44.341 22.386 Z" fill="currentColor" fill-rule="nonzero"></path>
  <path d="M 58.293 0.436 L 46.965 30.825 L 41.207 30.825 L 52.535 0.436 L 58.293 0.436 Z" fill="currentColor" fill-rule="nonzero"></path>
  <path d="M 70.083 30.825 L 62.767 6.984 L 62.579 6.984 C 62.607 7.552 62.649 8.411 62.704 9.561 C 62.773 10.698 62.836 11.91 62.891 13.199 C 62.947 14.488 62.974 15.652 62.974 16.691 L 62.974 30.825 L 57.217 30.825 L 57.217 0.436 L 65.988 0.436 L 73.18 23.675 L 73.305 23.675 L 80.933 0.436 L 89.705 0.436 L 89.705 30.825 L 83.698 30.825 L 83.698 16.441 C 83.698 15.485 83.711 14.384 83.739 13.136 C 83.781 11.889 83.829 10.705 83.885 9.582 C 83.94 8.446 83.982 7.594 84.009 7.026 L 83.822 7.026 L 75.986 30.825 L 70.083 30.825 Z" fill="currentColor" fill-rule="nonzero"></path>
  <path d="M 110.204 22.386 C 110.204 24.187 109.768 25.753 108.895 27.084 C 108.022 28.414 106.747 29.439 105.07 30.16 C 103.407 30.88 101.384 31.241 99.001 31.241 C 97.948 31.241 96.915 31.171 95.904 31.033 C 94.906 30.894 93.943 30.693 93.015 30.43 C 92.1 30.153 91.227 29.813 90.396 29.412 L 90.396 23.425 C 91.837 24.063 93.333 24.638 94.885 25.151 C 96.437 25.663 97.975 25.92 99.5 25.92 C 100.553 25.92 101.398 25.781 102.035 25.504 C 102.687 25.227 103.158 24.846 103.449 24.361 C 103.74 23.876 103.885 23.321 103.885 22.698 C 103.885 21.936 103.629 21.284 103.116 20.744 C 102.604 20.204 101.897 19.698 100.996 19.227 C 100.109 18.755 99.105 18.25 97.982 17.709 C 97.276 17.377 96.506 16.975 95.675 16.504 C 94.844 16.019 94.054 15.43 93.305 14.737 C 92.557 14.044 91.941 13.206 91.456 12.222 C 90.984 11.224 90.749 10.032 90.749 8.647 C 90.749 6.832 91.165 5.28 91.996 3.991 C 92.827 2.702 94.012 1.718 95.55 1.039 C 97.102 0.346 98.931 0 101.038 0 C 102.617 0 104.121 0.187 105.548 0.561 C 106.989 0.921 108.493 1.448 110.059 2.141 L 107.98 7.15 C 106.581 6.582 105.326 6.146 104.218 5.841 C 103.109 5.522 101.98 5.363 100.83 5.363 C 100.026 5.363 99.34 5.494 98.772 5.758 C 98.204 6.007 97.774 6.367 97.483 6.838 C 97.192 7.296 97.047 7.829 97.047 8.439 C 97.047 9.159 97.255 9.769 97.67 10.268 C 98.1 10.753 98.737 11.224 99.583 11.681 C 100.442 12.139 101.509 12.672 102.784 13.282 C 104.336 14.016 105.659 14.785 106.754 15.589 C 107.862 16.379 108.715 17.314 109.31 18.395 C 109.906 19.462 110.204 20.792 110.204 22.386 Z" fill="currentColor" fill-rule="nonzero"></path>
</svg>