<svg xmlns="http://www.w3.org/2000/svg" width="80.848" height="32.264" viewBox="0 0 80.848 32.264" fill="none">
  <path d="M 4.359 0.652 L 3.536 1.518 C 3.294 1.178 2.864 1.018 2.426 1.018 C 1.907 1.018 1.387 1.25 1.387 1.83 C 1.387 3.098 4.395 2.375 4.395 4.625 C 4.395 5.982 3.321 6.642 2.077 6.642 C 1.289 6.642 0.519 6.401 0 5.785 L 0.85 4.964 C 1.128 5.383 1.602 5.625 2.104 5.625 C 2.623 5.625 3.214 5.339 3.214 4.759 C 3.214 3.375 0.206 4.169 0.206 1.911 C 0.206 0.607 1.37 0 2.542 0 C 3.205 0 3.867 0.187 4.359 0.652 Z" fill="currentColor" fill-rule="nonzero"></path>
  <path d="M 9.428 4.714 L 6.152 4.714 C 6.223 5.348 6.707 5.732 7.306 5.732 C 7.843 5.732 8.192 5.482 8.461 5.151 L 9.231 5.732 C 8.73 6.348 8.094 6.589 7.414 6.589 C 6.116 6.589 5.077 5.687 5.077 4.339 C 5.077 2.991 6.116 2.089 7.414 2.089 C 8.613 2.089 9.428 2.928 9.428 4.419 L 9.428 4.714 Z M 6.152 3.91 L 8.354 3.91 C 8.345 3.285 7.933 2.893 7.261 2.893 C 6.626 2.893 6.232 3.294 6.152 3.91 Z" fill="currentColor" fill-rule="nonzero"></path>
  <path d="M 13.932 2.741 L 13.189 3.482 C 12.939 3.223 12.661 3.053 12.375 3.053 C 11.587 3.053 11.113 3.669 11.113 4.339 C 11.113 5.009 11.587 5.625 12.375 5.625 C 12.706 5.625 13.01 5.482 13.207 5.223 L 13.923 5.991 C 13.485 6.428 12.751 6.589 12.375 6.589 C 11.077 6.589 10.038 5.687 10.038 4.339 C 10.038 2.991 11.077 2.089 12.375 2.089 C 12.921 2.089 13.52 2.286 13.932 2.741 Z" fill="currentColor" fill-rule="nonzero"></path>
  <path d="M 14.392 6.482 L 14.392 2.196 L 15.467 2.196 L 15.467 2.875 L 15.485 2.875 C 15.717 2.384 16.192 2.089 16.756 2.089 C 16.89 2.089 17.015 2.116 17.141 2.152 L 17.141 3.187 C 16.962 3.143 16.791 3.107 16.621 3.107 C 15.61 3.107 15.467 3.955 15.467 4.187 L 15.467 6.482 L 14.392 6.482 Z" fill="currentColor" fill-rule="nonzero"></path>
  <path d="M 21.671 4.714 L 18.395 4.714 C 18.466 5.348 18.95 5.732 19.549 5.732 C 20.086 5.732 20.435 5.482 20.704 5.151 L 21.474 5.732 C 20.973 6.348 20.337 6.589 19.657 6.589 C 18.359 6.589 17.32 5.687 17.32 4.339 C 17.32 2.991 18.359 2.089 19.657 2.089 C 20.856 2.089 21.671 2.928 21.671 4.419 L 21.671 4.714 Z M 18.395 3.91 L 20.597 3.91 C 20.588 3.285 20.176 2.893 19.505 2.893 C 18.869 2.893 18.475 3.294 18.395 3.91 Z" fill="currentColor" fill-rule="nonzero"></path>
  <path d="M 22.881 3.107 L 21.995 3.107 L 21.995 2.196 L 22.881 2.196 L 22.881 0.955 L 23.955 0.955 L 23.955 2.196 L 25.137 2.196 L 25.137 3.107 L 23.955 3.107 L 23.955 4.982 C 23.955 5.41 24.081 5.678 24.555 5.678 C 24.743 5.678 25.003 5.642 25.137 5.544 L 25.137 6.446 C 24.913 6.553 24.537 6.589 24.286 6.589 C 23.15 6.589 22.881 6.08 22.881 5.071 L 22.881 3.107 Z" fill="currentColor" fill-rule="nonzero"></path>
  <path d="M 28.482 6.482 L 28.482 5.892 L 28.455 5.892 C 28.151 6.374 27.649 6.589 27.076 6.589 C 26.28 6.589 25.51 6.151 25.51 5.303 C 25.51 3.91 27.139 3.812 28.213 3.812 L 28.482 3.812 L 28.482 3.696 C 28.482 3.169 28.07 2.893 27.497 2.893 C 27.05 2.893 26.638 3.071 26.351 3.339 L 25.787 2.777 C 26.262 2.294 26.933 2.089 27.613 2.089 C 29.448 2.089 29.448 3.41 29.448 4.018 L 29.448 6.482 L 28.482 6.482 Z M 28.419 4.803 L 28.419 4.562 L 28.195 4.562 C 27.604 4.562 26.584 4.607 26.584 5.223 C 26.584 5.616 26.987 5.785 27.336 5.785 C 28.07 5.785 28.419 5.401 28.419 4.803 Z" fill="currentColor" fill-rule="nonzero"></path>
  <path d="M 30.425 6.482 L 30.425 2.196 L 31.499 2.196 L 31.499 2.875 L 31.517 2.875 C 31.75 2.384 32.224 2.089 32.788 2.089 C 32.923 2.089 33.048 2.116 33.173 2.152 L 33.173 3.187 C 32.994 3.143 32.824 3.107 32.654 3.107 C 31.643 3.107 31.499 3.955 31.499 4.187 L 31.499 6.482 L 30.425 6.482 Z" fill="currentColor" fill-rule="nonzero"></path>
  <path d="M 33.743 6.482 L 33.743 2.196 L 34.817 2.196 L 34.817 6.482 L 33.743 6.482 Z M 33.591 0.741 C 33.591 0.402 33.877 0.098 34.271 0.098 C 34.665 0.098 34.969 0.375 34.969 0.741 C 34.969 1.107 34.665 1.384 34.271 1.384 C 33.877 1.384 33.591 1.08 33.591 0.741 Z" fill="currentColor" fill-rule="nonzero"></path>
  <path d="M 38.557 6.482 L 38.557 5.892 L 38.53 5.892 C 38.226 6.374 37.724 6.589 37.152 6.589 C 36.355 6.589 35.585 6.151 35.585 5.303 C 35.585 3.91 37.214 3.812 38.288 3.812 L 38.557 3.812 L 38.557 3.696 C 38.557 3.169 38.145 2.893 37.572 2.893 C 37.125 2.893 36.713 3.071 36.426 3.339 L 35.863 2.777 C 36.337 2.294 37.008 2.089 37.689 2.089 C 39.524 2.089 39.524 3.41 39.524 4.018 L 39.524 6.482 L 38.557 6.482 Z M 38.494 4.803 L 38.494 4.562 L 38.27 4.562 C 37.68 4.562 36.659 4.607 36.659 5.223 C 36.659 5.616 37.062 5.785 37.411 5.785 C 38.145 5.785 38.494 5.401 38.494 4.803 Z" fill="currentColor" fill-rule="nonzero"></path>
  <path d="M 42.407 3.83 L 42.407 4.741 L 40.196 4.741 L 40.196 3.83 L 42.407 3.83 Z" fill="currentColor" fill-rule="nonzero"></path>
  <path d="M 43.243 6.482 L 43.243 0.161 L 47.441 0.161 L 47.441 1.178 L 44.371 1.178 L 44.371 2.732 L 47.28 2.732 L 47.28 3.75 L 44.371 3.75 L 44.371 5.464 L 47.603 5.464 L 47.603 6.482 L 43.243 6.482 Z" fill="currentColor" fill-rule="nonzero"></path>
  <path d="M 47.82 6.482 L 49.548 4.178 L 48.062 2.196 L 49.369 2.196 L 50.228 3.482 L 51.159 2.196 L 52.385 2.196 L 50.917 4.178 L 52.645 6.482 L 51.338 6.482 L 50.219 4.946 L 49.091 6.482 L 47.82 6.482 Z" fill="currentColor" fill-rule="nonzero"></path>
  <path d="M 57.202 4.714 L 53.926 4.714 C 53.998 5.348 54.481 5.732 55.081 5.732 C 55.618 5.732 55.967 5.482 56.236 5.151 L 57.005 5.732 C 56.504 6.348 55.869 6.589 55.188 6.589 C 53.89 6.589 52.852 5.687 52.852 4.339 C 52.852 2.991 53.89 2.089 55.188 2.089 C 56.388 2.089 57.202 2.928 57.202 4.419 L 57.202 4.714 Z M 53.926 3.91 L 56.128 3.91 C 56.119 3.285 55.707 2.893 55.036 2.893 C 54.401 2.893 54.007 3.294 53.926 3.91 Z" fill="currentColor" fill-rule="nonzero"></path>
  <path d="M 61.707 2.741 L 60.964 3.482 C 60.713 3.223 60.436 3.053 60.149 3.053 C 59.362 3.053 58.887 3.669 58.887 4.339 C 58.887 5.009 59.362 5.625 60.149 5.625 C 60.48 5.625 60.785 5.482 60.982 5.223 L 61.698 5.991 C 61.259 6.428 60.525 6.589 60.149 6.589 C 58.851 6.589 57.813 5.687 57.813 4.339 C 57.813 2.991 58.851 2.089 60.149 2.089 C 60.695 2.089 61.295 2.286 61.707 2.741 Z" fill="currentColor" fill-rule="nonzero"></path>
  <path d="M 66.088 2.196 L 66.088 6.482 L 65.067 6.482 L 65.067 5.794 L 65.049 5.794 C 64.852 6.223 64.45 6.589 63.734 6.589 C 62.579 6.589 62.167 5.776 62.167 4.901 L 62.167 2.196 L 63.241 2.196 L 63.241 4.366 C 63.241 4.839 63.277 5.625 64.029 5.625 C 64.736 5.625 65.014 5.107 65.014 4.535 L 65.014 2.196 L 66.088 2.196 Z" fill="currentColor" fill-rule="nonzero"></path>
  <path d="M 67.513 3.107 L 66.627 3.107 L 66.627 2.196 L 67.513 2.196 L 67.513 0.955 L 68.587 0.955 L 68.587 2.196 L 69.769 2.196 L 69.769 3.107 L 68.587 3.107 L 68.587 4.982 C 68.587 5.41 68.712 5.678 69.187 5.678 C 69.375 5.678 69.634 5.642 69.769 5.544 L 69.769 6.446 C 69.545 6.553 69.169 6.589 68.918 6.589 C 67.781 6.589 67.513 6.08 67.513 5.071 L 67.513 3.107 Z" fill="currentColor" fill-rule="nonzero"></path>
  <path d="M 70.455 6.482 L 70.455 2.196 L 71.529 2.196 L 71.529 6.482 L 70.455 6.482 Z M 70.303 0.741 C 70.303 0.402 70.589 0.098 70.983 0.098 C 71.377 0.098 71.681 0.375 71.681 0.741 C 71.681 1.107 71.377 1.384 70.983 1.384 C 70.589 1.384 70.303 1.08 70.303 0.741 Z" fill="currentColor" fill-rule="nonzero"></path>
  <path d="M 73.756 6.482 L 72.001 2.196 L 73.174 2.196 L 74.32 5.196 L 74.338 5.196 L 75.492 2.196 L 76.593 2.196 L 74.902 6.482 L 73.756 6.482 Z" fill="currentColor" fill-rule="nonzero"></path>
  <path d="M 79.731 6.482 L 79.731 5.892 L 79.704 5.892 C 79.4 6.374 78.899 6.589 78.326 6.589 C 77.529 6.589 76.759 6.151 76.759 5.303 C 76.759 3.91 78.389 3.812 79.463 3.812 L 79.731 3.812 L 79.731 3.696 C 79.731 3.169 79.319 2.893 78.747 2.893 C 78.299 2.893 77.887 3.071 77.601 3.339 L 77.037 2.777 C 77.511 2.294 78.183 2.089 78.863 2.089 C 80.698 2.089 80.698 3.41 80.698 4.018 L 80.698 6.482 L 79.731 6.482 Z M 79.669 4.803 L 79.669 4.562 L 79.445 4.562 C 78.854 4.562 77.834 4.607 77.834 5.223 C 77.834 5.616 78.236 5.785 78.585 5.785 C 79.319 5.785 79.669 5.401 79.669 4.803 Z" fill="currentColor" fill-rule="nonzero"></path>
  <path d="M 13.358 18.323 L 13.358 17.68 L 13.34 17.68 C 13.027 18.198 12.463 18.43 11.863 18.43 C 10.538 18.43 9.741 17.448 9.741 16.18 C 9.741 14.912 10.592 13.93 11.818 13.93 C 12.624 13.93 13.053 14.305 13.277 14.582 L 13.304 14.582 L 13.304 11.573 L 14.378 11.573 L 14.378 18.323 L 13.358 18.323 Z M 10.816 16.18 C 10.816 16.85 11.29 17.466 12.078 17.466 C 12.866 17.466 13.34 16.85 13.34 16.18 C 13.34 15.511 12.866 14.895 12.078 14.895 C 11.29 14.895 10.816 15.511 10.816 16.18 Z" fill="currentColor" fill-rule="nonzero"></path>
  <path d="M 19.551 16.555 L 16.275 16.555 C 16.347 17.189 16.83 17.573 17.43 17.573 C 17.967 17.573 18.316 17.323 18.584 16.993 L 19.354 17.573 C 18.853 18.189 18.217 18.43 17.537 18.43 C 16.239 18.43 15.201 17.528 15.201 16.18 C 15.201 14.832 16.239 13.93 17.537 13.93 C 18.737 13.93 19.551 14.77 19.551 16.261 L 19.551 16.555 Z M 16.275 15.752 L 18.477 15.752 C 18.468 15.127 18.056 14.734 17.385 14.734 C 16.749 14.734 16.355 15.136 16.275 15.752 Z" fill="currentColor" fill-rule="nonzero"></path>
  <path d="M 24.243 18.323 L 24.243 13.02 L 22.3 13.02 L 22.3 12.002 L 27.313 12.002 L 27.313 13.02 L 25.371 13.02 L 25.371 18.323 L 24.243 18.323 Z" fill="currentColor" fill-rule="nonzero"></path>
  <path d="M 26.986 18.323 L 26.986 14.037 L 28.06 14.037 L 28.06 14.716 L 28.078 14.716 C 28.31 14.225 28.785 13.93 29.349 13.93 C 29.483 13.93 29.608 13.957 29.734 13.993 L 29.734 15.028 C 29.555 14.984 29.384 14.948 29.214 14.948 C 28.203 14.948 28.06 15.796 28.06 16.028 L 28.06 18.323 L 26.986 18.323 Z" fill="currentColor" fill-rule="nonzero"></path>
  <path d="M 32.971 18.323 L 32.971 17.734 L 32.944 17.734 C 32.64 18.216 32.139 18.43 31.566 18.43 C 30.769 18.43 29.999 17.993 29.999 17.144 C 29.999 15.752 31.628 15.653 32.702 15.653 L 32.971 15.653 L 32.971 15.537 C 32.971 15.011 32.559 14.734 31.986 14.734 C 31.539 14.734 31.127 14.912 30.841 15.18 L 30.277 14.618 C 30.751 14.136 31.422 13.93 32.103 13.93 C 33.938 13.93 33.938 15.252 33.938 15.859 L 33.938 18.323 L 32.971 18.323 Z M 32.908 16.644 L 32.908 16.403 L 32.685 16.403 C 32.094 16.403 31.073 16.448 31.073 17.064 C 31.073 17.457 31.476 17.626 31.825 17.626 C 32.559 17.626 32.908 17.243 32.908 16.644 Z" fill="currentColor" fill-rule="nonzero"></path>
  <path d="M 34.914 18.323 L 34.914 14.037 L 35.935 14.037 L 35.935 14.725 L 35.953 14.725 C 36.15 14.296 36.553 13.93 37.269 13.93 C 38.423 13.93 38.835 14.743 38.835 15.618 L 38.835 18.323 L 37.761 18.323 L 37.761 16.153 C 37.761 15.68 37.725 14.895 36.973 14.895 C 36.266 14.895 35.989 15.412 35.989 15.984 L 35.989 18.323 L 34.914 18.323 Z" fill="currentColor" fill-rule="nonzero"></path>
  <path d="M 42.883 14.582 L 42.167 15.225 C 41.961 14.939 41.693 14.787 41.326 14.787 C 41.039 14.787 40.699 14.921 40.699 15.243 C 40.699 16.011 43.017 15.386 43.017 17.055 C 43.017 18.073 42.042 18.43 41.164 18.43 C 40.502 18.43 39.929 18.26 39.491 17.769 L 40.207 17.1 C 40.484 17.403 40.771 17.626 41.227 17.626 C 41.54 17.626 41.943 17.475 41.943 17.135 C 41.943 16.252 39.625 16.948 39.625 15.314 C 39.625 14.359 40.484 13.93 41.352 13.93 C 41.925 13.93 42.534 14.109 42.883 14.582 Z" fill="currentColor" fill-rule="nonzero"></path>
  <path d="M 44.059 18.323 L 44.059 14.948 L 43.173 14.948 L 43.173 14.037 L 44.059 14.037 L 44.059 13.43 C 44.059 12.243 44.327 11.466 45.661 11.466 C 45.894 11.466 46.118 11.484 46.341 11.529 L 46.27 12.439 C 46.118 12.404 45.974 12.377 45.822 12.377 C 45.222 12.377 45.133 12.788 45.133 13.261 L 45.133 14.037 L 46.126 14.037 L 46.126 14.948 L 45.133 14.948 L 45.133 18.323 L 44.059 18.323 Z" fill="currentColor" fill-rule="nonzero"></path>
  <path d="M 46.427 16.18 C 46.427 14.832 47.465 13.93 48.763 13.93 C 50.061 13.93 51.1 14.832 51.1 16.18 C 51.1 17.528 50.061 18.43 48.763 18.43 C 47.465 18.43 46.427 17.528 46.427 16.18 Z M 47.501 16.18 C 47.501 16.85 47.975 17.466 48.763 17.466 C 49.551 17.466 50.025 16.85 50.025 16.18 C 50.025 15.511 49.551 14.895 48.763 14.895 C 47.975 14.895 47.501 15.511 47.501 16.18 Z" fill="currentColor" fill-rule="nonzero"></path>
  <path d="M 51.926 18.323 L 51.926 14.037 L 53 14.037 L 53 14.716 L 53.018 14.716 C 53.251 14.225 53.725 13.93 54.289 13.93 C 54.424 13.93 54.549 13.957 54.674 13.993 L 54.674 15.028 C 54.495 14.984 54.325 14.948 54.155 14.948 C 53.144 14.948 53 15.796 53 16.028 L 53 18.323 L 51.926 18.323 Z" fill="currentColor" fill-rule="nonzero"></path>
  <path d="M 55.339 18.323 L 55.339 14.037 L 56.359 14.037 L 56.359 14.707 L 56.377 14.707 C 56.565 14.305 56.977 13.93 57.693 13.93 C 58.355 13.93 58.812 14.189 59.036 14.725 C 59.349 14.18 59.806 13.93 60.45 13.93 C 61.596 13.93 61.999 14.743 61.999 15.769 L 61.999 18.323 L 60.924 18.323 L 60.924 15.894 C 60.924 15.359 60.763 14.895 60.128 14.895 C 59.456 14.895 59.206 15.448 59.206 16.002 L 59.206 18.323 L 58.132 18.323 L 58.132 15.769 C 58.132 15.243 57.917 14.895 57.398 14.895 C 56.691 14.895 56.413 15.412 56.413 15.984 L 56.413 18.323 L 55.339 18.323 Z" fill="currentColor" fill-rule="nonzero"></path>
  <path d="M 65.679 18.323 L 65.679 17.734 L 65.652 17.734 C 65.348 18.216 64.846 18.43 64.273 18.43 C 63.477 18.43 62.707 17.993 62.707 17.144 C 62.707 15.752 64.336 15.653 65.41 15.653 L 65.679 15.653 L 65.679 15.537 C 65.679 15.011 65.267 14.734 64.694 14.734 C 64.246 14.734 63.835 14.912 63.548 15.18 L 62.984 14.618 C 63.459 14.136 64.13 13.93 64.81 13.93 C 66.645 13.93 66.645 15.252 66.645 15.859 L 66.645 18.323 L 65.679 18.323 Z M 65.616 16.644 L 65.616 16.403 L 65.392 16.403 C 64.801 16.403 63.781 16.448 63.781 17.064 C 63.781 17.457 64.184 17.626 64.533 17.626 C 65.267 17.626 65.616 17.243 65.616 16.644 Z" fill="currentColor" fill-rule="nonzero"></path>
  <path d="M 71.301 14.582 L 70.558 15.323 C 70.308 15.064 70.03 14.895 69.744 14.895 C 68.956 14.895 68.481 15.511 68.481 16.18 C 68.481 16.85 68.956 17.466 69.744 17.466 C 70.075 17.466 70.379 17.323 70.576 17.064 L 71.292 17.832 C 70.863 18.26 70.137 18.43 69.761 18.43 L 69.457 18.859 C 69.985 18.859 70.54 18.912 70.54 19.6 C 70.54 20.251 69.833 20.466 69.296 20.466 C 68.965 20.466 68.634 20.376 68.347 20.216 L 68.544 19.805 C 68.768 19.921 69.019 19.983 69.278 19.983 C 69.475 19.983 69.788 19.903 69.788 19.608 C 69.788 19.376 69.52 19.287 69.332 19.287 C 69.215 19.287 69.108 19.314 69.001 19.35 L 68.759 19.126 L 69.269 18.385 C 68.204 18.198 67.407 17.359 67.407 16.18 C 67.407 14.832 68.446 13.93 69.744 13.93 C 70.29 13.93 70.889 14.127 71.301 14.582 Z" fill="currentColor" fill-rule="nonzero"></path>
  <path d="M 74.447 18.323 L 74.447 17.734 L 74.42 17.734 C 74.116 18.216 73.614 18.43 73.041 18.43 C 72.245 18.43 71.475 17.993 71.475 17.144 C 71.475 15.752 73.104 15.653 74.178 15.653 L 74.447 15.653 L 74.447 15.537 C 74.447 15.011 74.035 14.734 73.462 14.734 C 73.015 14.734 72.603 14.912 72.316 15.18 L 71.752 14.618 C 72.227 14.136 72.898 13.93 73.579 13.93 C 75.414 13.93 75.414 15.252 75.414 15.859 L 75.414 18.323 L 74.447 18.323 Z M 74.384 16.644 L 74.384 16.403 L 74.16 16.403 C 73.57 16.403 72.549 16.448 72.549 17.064 C 72.549 17.457 72.952 17.626 73.301 17.626 C 74.035 17.626 74.384 17.243 74.384 16.644 Z M 72.504 13.252 L 71.914 13.252 C 72.012 12.68 72.245 12.118 72.916 12.118 C 73.4 12.118 73.919 12.448 74.205 12.448 C 74.447 12.448 74.554 12.27 74.617 12.073 L 75.208 12.073 C 75.109 12.645 74.876 13.207 74.205 13.207 C 73.722 13.207 73.203 12.868 72.916 12.868 C 72.674 12.868 72.567 13.055 72.504 13.252 Z" fill="currentColor" fill-rule="nonzero"></path>
  <path d="M 76.175 16.18 C 76.175 14.832 77.214 13.93 78.512 13.93 C 79.81 13.93 80.848 14.832 80.848 16.18 C 80.848 17.528 79.81 18.43 78.512 18.43 C 77.214 18.43 76.175 17.528 76.175 16.18 Z M 77.25 16.18 C 77.25 16.85 77.724 17.466 78.512 17.466 C 79.299 17.466 79.774 16.85 79.774 16.18 C 79.774 15.511 79.299 14.895 78.512 14.895 C 77.724 14.895 77.25 15.511 77.25 16.18 Z" fill="currentColor" fill-rule="nonzero"></path>
  <path d="M 55.154 30.122 L 55.154 23.801 L 57.652 23.801 C 59.316 23.801 60.874 24.819 60.874 26.961 C 60.874 29.122 59.039 30.122 57.517 30.122 L 55.154 30.122 Z M 56.282 29.104 L 57.123 29.104 C 58.538 29.104 59.692 28.497 59.692 26.961 C 59.692 25.426 58.69 24.819 57.311 24.819 L 56.282 24.819 L 56.282 29.104 Z" fill="currentColor" fill-rule="nonzero"></path>
  <path d="M 61.687 30.122 L 61.687 25.836 L 62.761 25.836 L 62.761 30.122 L 61.687 30.122 Z M 61.535 24.381 C 61.535 24.042 61.821 23.738 62.215 23.738 C 62.609 23.738 62.913 24.015 62.913 24.381 C 62.913 24.747 62.609 25.024 62.215 25.024 C 61.821 25.024 61.535 24.72 61.535 24.381 Z" fill="currentColor" fill-rule="nonzero"></path>
  <path d="M 67.217 25.836 L 68.237 25.836 L 68.237 29.738 C 68.237 31.282 67.485 32.264 65.811 32.264 C 65.014 32.264 64.289 32.095 63.681 31.559 L 64.325 30.684 C 64.755 31.077 65.202 31.3 65.802 31.3 C 66.841 31.3 67.163 30.711 67.163 29.863 L 67.163 29.55 L 67.145 29.55 C 66.832 29.97 66.277 30.175 65.74 30.175 C 64.451 30.175 63.6 29.193 63.6 27.979 C 63.6 26.711 64.397 25.729 65.722 25.729 C 66.321 25.729 66.885 25.961 67.199 26.479 L 67.217 26.479 L 67.217 25.836 Z M 65.945 26.693 C 65.194 26.693 64.674 27.211 64.674 27.97 C 64.674 28.649 65.211 29.211 65.936 29.211 C 66.733 29.211 67.217 28.666 67.217 27.952 C 67.217 27.211 66.724 26.693 65.945 26.693 Z" fill="currentColor" fill-rule="nonzero"></path>
  <path d="M 69.292 30.122 L 69.292 25.836 L 70.366 25.836 L 70.366 30.122 L 69.292 30.122 Z M 69.14 24.381 C 69.14 24.042 69.426 23.738 69.82 23.738 C 70.214 23.738 70.519 24.015 70.519 24.381 C 70.519 24.747 70.214 25.024 69.82 25.024 C 69.426 25.024 69.14 24.72 69.14 24.381 Z" fill="currentColor" fill-rule="nonzero"></path>
  <path d="M 71.805 26.747 L 70.919 26.747 L 70.919 25.836 L 71.805 25.836 L 71.805 24.595 L 72.88 24.595 L 72.88 25.836 L 74.061 25.836 L 74.061 26.747 L 72.88 26.747 L 72.88 28.622 C 72.88 29.05 73.005 29.318 73.479 29.318 C 73.667 29.318 73.927 29.282 74.061 29.184 L 74.061 30.086 C 73.837 30.193 73.461 30.229 73.211 30.229 C 72.074 30.229 71.805 29.72 71.805 28.711 L 71.805 26.747 Z" fill="currentColor" fill-rule="nonzero"></path>
  <path d="M 77.406 30.122 L 77.406 29.532 L 77.379 29.532 C 77.075 30.015 76.574 30.229 76.001 30.229 C 75.204 30.229 74.434 29.791 74.434 28.943 C 74.434 27.551 76.063 27.452 77.137 27.452 L 77.406 27.452 L 77.406 27.336 C 77.406 26.809 76.994 26.533 76.421 26.533 C 75.974 26.533 75.562 26.711 75.276 26.979 L 74.712 26.417 C 75.186 25.935 75.857 25.729 76.538 25.729 C 78.373 25.729 78.373 27.051 78.373 27.658 L 78.373 30.122 L 77.406 30.122 Z M 77.343 28.443 L 77.343 28.202 L 77.12 28.202 C 76.529 28.202 75.508 28.247 75.508 28.863 C 75.508 29.256 75.911 29.425 76.26 29.425 C 76.994 29.425 77.343 29.041 77.343 28.443 Z" fill="currentColor" fill-rule="nonzero"></path>
  <path d="M 79.367 30.122 L 79.367 23.372 L 80.441 23.372 L 80.441 30.122 L 79.367 30.122 Z" fill="currentColor" fill-rule="nonzero"></path>
</svg>