<svg xmlns="http://www.w3.org/2000/svg" width="53.929" height="12.565" viewBox="0 0 53.929 12.565" fill="none">
  <path d="M 35.947 6.238 C 35.947 8.88 34.05 9.721 31.999 9.721 L 30.636 9.721 L 30.636 2.79 L 32.062 2.79 C 34.043 2.79 35.94 3.575 35.94 6.238 M 38.927 6.238 C 38.927 1.753 35.505 0.344 32.125 0.344 L 27.825 0.344 L 27.825 12.201 L 32.259 12.201 C 35.533 12.201 38.927 10.407 38.927 6.238 Z" fill="currentColor" fill-rule="nonzero"></path>
  <path d="M 18.465 9.802 L 12.911 9.802 L 12.911 7.328 L 17.872 7.328 L 17.872 5.023 L 12.911 5.023 L 12.911 2.782 L 18.162 2.782 L 18.162 0.343 L 10.127 0.343 L 10.127 12.269 L 18.465 12.269 L 18.465 9.802 Z M 9.144 1.499 C 8.099 0.54 6.579 0.033 5.229 0.033 C 3.003 0.033 0.601 1.125 0.601 3.776 C 0.601 5.932 2.134 6.708 3.654 7.194 C 5.222 7.701 6.134 7.983 6.134 8.893 C 6.134 9.851 5.357 10.189 4.48 10.189 C 3.533 10.189 2.473 9.654 1.894 8.928 L 0 10.845 C 1.046 11.937 2.77 12.565 4.473 12.565 C 6.841 12.565 9.053 11.338 9.053 8.589 C 9.053 6.214 6.961 5.523 5.335 5.002 C 4.205 4.649 3.498 4.396 3.498 3.606 C 3.498 2.662 4.424 2.408 5.173 2.408 C 5.922 2.408 6.812 2.81 7.3 3.437 L 9.137 1.499 L 9.144 1.499 Z" fill="currentColor" fill-rule="nonzero"></path>
  <path d="M 53.929 5.209 L 53.929 11.517 C 52.763 12.123 51.159 12.546 49.321 12.546 C 45.498 12.546 42.749 10.093 42.749 6.266 C 42.749 2.439 45.59 0 49.236 0 C 51.109 0 52.848 0.627 53.844 1.586 L 52.021 3.658 C 51.462 3.017 50.501 2.544 49.335 2.544 C 47.307 2.544 45.823 4.074 45.823 6.266 C 45.823 8.458 47.123 10.023 49.47 10.023 C 50.148 10.023 50.77 9.924 51.279 9.705 L 51.279 7.535 L 48.996 7.535 L 48.996 5.209 L 53.929 5.209 Z" fill="currentColor" fill-rule="nonzero"></path>
  <path d="M 42.29 0.337 L 42.29 12.263 L 39.386 12.263 L 39.386 0.337 L 42.29 0.337 Z" fill="currentColor" fill-rule="nonzero"></path>
  <path d="M 27.366 0.337 L 27.36 2.729 L 27.36 2.775 L 24.252 2.775 L 24.259 12.287 L 21.6 12.287 L 21.6 2.78 L 18.492 2.78 L 18.492 0.337 L 27.366 0.337 Z" fill="currentColor" fill-rule="nonzero"></path>
</svg>