<svg xmlns="http://www.w3.org/2000/svg" width="125.134" height="60" viewBox="0 0 125.134 60" fill="none">
  <path d="M 93.758 40.744 C 92.499 40.744 91.848 39.723 91.848 38.686 C 91.848 37.649 92.518 36.596 93.773 36.596 C 95.032 36.596 95.702 37.649 95.702 38.686 C 95.702 39.723 95.014 40.744 93.758 40.744 Z M 85.458 51.683 C 85.458 52.154 85.007 52.246 84.639 52.246 L 83.988 52.246 L 83.988 51.072 L 84.57 51.072 C 84.963 51.072 85.458 51.171 85.458 51.683 Z M 107.372 27.041 C 106.113 27.041 105.458 26.02 105.458 24.983 C 105.458 23.945 106.127 22.892 107.386 22.892 C 108.645 22.892 109.315 23.945 109.315 24.983 C 109.315 26.02 108.627 27.041 107.372 27.041 Z M 105.676 50.722 C 105.676 51.854 104.861 52.189 104.013 52.189 L 103.405 52.189 L 103.405 49.241 L 103.984 49.241 C 104.861 49.241 105.676 49.597 105.676 50.722 Z M 82.874 27.041 C 81.615 27.041 80.96 26.02 80.96 24.983 C 80.96 23.945 81.63 22.892 82.885 22.892 C 84.148 22.892 84.817 23.945 84.817 24.983 C 84.817 26.02 84.13 27.041 82.874 27.041 Z M 96.287 49.163 C 97.143 49.163 97.743 49.818 97.743 50.73 C 97.743 51.613 97.15 52.268 96.287 52.268 C 95.425 52.268 94.836 51.613 94.836 50.73 C 94.836 49.818 95.432 49.163 96.287 49.163 Z M 69.228 49.163 C 70.083 49.163 70.684 49.818 70.684 50.73 C 70.684 51.613 70.09 52.268 69.228 52.268 C 68.369 52.268 67.776 51.613 67.776 50.73 C 67.776 49.818 68.373 49.163 69.228 49.163 Z M 77.507 37.033 C 77.507 36.417 78.129 36.207 78.668 36.207 C 79.748 36.207 80.349 36.854 80.349 37.859 L 80.349 38.135 L 80.007 38.135 C 78.831 38.135 77.507 37.989 77.507 37.033 Z M 65.185 12.879 C 63.908 12.879 63.256 11.857 63.256 10.82 C 63.256 9.767 63.908 8.729 65.185 8.729 C 66.393 8.729 67.147 9.75 67.147 10.803 C 67.147 11.824 66.393 12.879 65.185 12.879 Z M 75.407 12.879 C 74.152 12.879 73.497 11.857 73.497 10.82 C 73.497 9.782 74.17 8.729 75.425 8.729 C 76.684 8.729 77.354 9.782 77.354 10.82 C 77.354 11.857 76.666 12.879 75.407 12.879 Z M 107.372 20.655 C 104.919 20.655 102.859 22.341 102.859 24.983 C 102.859 27.624 104.919 29.246 107.372 29.246 C 109.839 29.246 111.899 27.624 111.899 24.983 C 111.899 22.341 109.839 20.655 107.372 20.655 Z M 104.126 6.752 L 101.415 6.752 L 101.415 19.005 L 104.126 19.005 L 104.126 6.752 Z M 100.141 6.752 L 97.557 6.752 L 97.557 7.87 L 97.528 7.87 C 97.154 7.157 96.222 6.525 95.076 6.525 C 92.889 6.525 92.117 8.211 92.117 9.831 L 92.117 14.823 L 94.814 14.823 L 94.814 10.448 C 94.814 9.539 95.043 8.729 96.025 8.729 C 96.953 8.729 97.459 9.539 97.459 10.463 L 97.459 14.823 L 100.141 14.823 L 100.141 6.752 Z M 87.707 21.904 L 89.21 23.476 C 89.683 22.957 90.418 22.567 91.204 22.567 C 91.644 22.567 92.165 22.746 92.165 23.265 C 92.165 23.767 91.662 23.929 90.549 24.188 C 89.421 24.448 88.18 25.015 88.18 26.538 C 88.18 28.467 90.01 29.246 91.564 29.246 C 92.772 29.246 94.031 28.856 94.828 28.11 L 93.362 26.604 C 92.932 27.009 92.314 27.333 91.662 27.333 C 91.153 27.333 90.647 27.154 90.647 26.684 C 90.647 26.231 91.091 26.101 92.135 25.874 C 93.376 25.598 94.73 24.983 94.73 23.411 C 94.73 21.368 92.918 20.655 91.251 20.655 C 89.927 20.655 88.558 21.093 87.707 21.904 Z M 87.43 13.737 C 89.002 13.235 91.026 12.57 91.026 10.285 C 91.026 7.643 88.886 6.46 86.597 6.46 C 84.948 6.46 83.282 7.06 82.27 8.113 L 84.101 9.961 C 84.654 9.264 85.683 8.746 86.597 8.746 C 87.448 8.746 88.202 9.07 88.202 9.993 C 88.202 10.868 87.321 11.144 85.8 11.63 C 84.326 12.101 82.841 12.846 82.841 14.921 C 82.841 17.465 85.159 18.518 87.321 18.518 C 88.627 18.518 90.094 18.032 91.109 17.108 L 89.326 15.245 C 88.853 15.844 87.991 16.233 87.27 16.233 C 86.55 16.233 85.651 15.99 85.651 15.082 C 85.651 14.321 86.339 14.078 87.43 13.737 Z M 75.407 6.492 C 72.954 6.492 70.898 8.178 70.898 10.82 C 70.898 13.462 72.954 15.082 75.407 15.082 C 77.874 15.082 79.938 13.462 79.938 10.82 C 79.938 8.178 77.874 6.492 75.407 6.492 Z M 69.708 6.752 L 67.241 6.752 L 67.241 7.805 L 67.208 7.805 C 66.688 6.995 65.625 6.525 64.545 6.525 C 62.096 6.525 60.673 8.567 60.673 10.82 C 60.673 13.073 62.147 15.05 64.516 15.05 C 65.705 15.05 66.539 14.499 66.994 13.964 L 67.03 13.964 L 67.03 19.004 L 69.708 19.004 L 69.708 6.752 Z M 52.911 26.654 C 52.911 12.541 41.335 1.058 27.107 1.058 L 26.874 1.058 C 12.645 1.058 1.07 12.541 1.07 26.654 L 1.07 58.941 L 52.911 58.941 L 52.911 26.654 Z M 63.431 53.365 C 64.228 53.365 64.967 53.101 65.389 52.695 L 64.614 51.819 C 64.377 52.089 63.966 52.289 63.475 52.289 C 62.612 52.289 61.979 51.619 61.979 50.715 C 61.979 49.79 62.536 49.128 63.529 49.128 C 63.817 49.128 64.082 49.169 64.301 49.263 L 64.301 50.181 L 63.329 50.181 L 63.329 51.164 L 65.425 51.164 L 65.425 48.493 C 64.93 48.237 64.246 48.059 63.468 48.059 C 61.845 48.059 60.673 49.128 60.673 50.715 C 60.673 52.332 61.877 53.365 63.431 53.365 Z M 69.228 53.365 C 70.822 53.365 71.997 52.345 71.997 50.73 C 71.997 49.134 70.822 48.052 69.228 48.052 C 67.641 48.052 66.466 49.134 66.466 50.73 C 66.466 52.345 67.641 53.365 69.228 53.365 Z M 73.74 53.229 L 74.919 49.654 L 74.945 49.654 L 76.117 53.229 L 77.474 53.229 L 75.513 48.187 L 74.286 48.187 L 72.365 53.229 L 73.74 53.229 Z M 78.158 53.229 L 81.575 53.229 L 81.575 52.196 L 79.344 52.196 L 79.344 51.248 L 81.455 51.248 L 81.455 50.274 L 79.344 50.274 L 79.344 49.228 L 81.706 49.228 L 81.706 48.187 L 78.158 48.187 L 78.158 53.229 Z M 72.794 28.986 L 75.378 28.986 L 75.378 27.819 L 75.407 27.819 C 75.818 28.629 76.619 29.213 77.616 29.213 C 77.827 29.213 78.056 29.197 78.187 29.148 L 78.071 26.814 C 77.827 26.878 77.598 26.895 77.387 26.895 C 75.949 26.895 75.476 25.728 75.476 25.064 L 75.476 20.914 L 72.794 20.914 L 72.794 28.986 Z M 71.43 34.618 L 71.499 42.738 L 71.448 42.738 L 68.442 34.618 L 66.481 34.618 L 63.555 42.738 L 63.504 42.738 L 63.573 34.618 L 60.938 34.618 L 60.938 46.093 L 64.909 46.093 L 67.543 38.734 L 67.609 38.734 L 70.123 46.093 L 74.162 46.093 L 74.162 34.618 L 71.43 34.618 Z M 67.19 23.054 C 67.845 23.054 68.449 23.151 68.941 23.362 L 68.941 25.453 L 66.735 25.453 L 66.735 27.69 L 71.51 27.69 L 71.51 21.611 C 70.382 21.028 68.828 20.623 67.045 20.623 C 63.355 20.623 60.687 23.054 60.687 26.668 C 60.687 30.347 63.435 32.697 66.965 32.697 C 68.78 32.697 70.462 32.097 71.426 31.174 L 69.661 29.18 C 69.122 29.796 68.191 30.25 67.063 30.25 C 65.098 30.25 63.664 28.727 63.664 26.668 C 63.664 24.561 64.919 23.054 67.19 23.054 Z M 82.801 38.686 L 82.801 34.618 L 80.349 34.618 L 80.349 35.478 L 80.301 35.478 C 79.894 34.812 78.962 34.423 77.998 34.423 C 76.71 34.423 75.039 35.055 75.039 36.952 C 75.039 39.286 77.9 39.675 80.269 39.675 L 80.269 39.804 C 80.269 40.599 79.632 40.971 78.799 40.971 C 78.031 40.971 77.281 40.599 76.79 40.145 L 75.432 41.588 C 76.379 42.478 77.736 42.948 79.061 42.948 C 81.79 42.948 82.801 41.619 82.801 38.686 Z M 82.787 53.229 L 84.726 53.229 C 85.705 53.229 86.67 52.859 86.67 51.705 C 86.67 51.028 86.269 50.545 85.618 50.345 L 86.946 48.187 L 85.509 48.187 L 84.41 50.189 L 83.995 50.189 L 83.995 48.187 L 82.787 48.187 L 82.787 53.229 Z M 87.397 24.983 C 87.397 22.341 85.338 20.655 82.874 20.655 C 80.422 20.655 78.362 22.341 78.362 24.983 C 78.362 27.624 80.422 29.246 82.874 29.246 C 85.338 29.246 87.397 27.624 87.397 24.983 Z M 88.926 42.689 L 88.926 40.695 L 87.015 40.695 L 87.015 37.616 C 87.015 36.871 87.259 36.482 88.027 36.482 C 88.289 36.482 88.617 36.531 88.813 36.611 L 88.842 34.666 C 88.486 34.537 87.863 34.423 87.292 34.423 C 85.119 34.423 84.399 35.574 84.399 37.292 L 84.399 40.695 L 83.093 40.695 L 83.093 42.689 L 84.384 42.689 L 84.384 44.813 L 87.015 44.813 L 87.015 42.689 L 88.926 42.689 Z M 87.816 53.229 L 89.217 53.229 L 91.258 49.939 L 91.28 49.939 L 91.251 53.229 L 92.437 53.229 L 92.437 48.187 L 91.047 48.187 L 89.002 51.484 L 88.98 51.484 L 89.01 48.187 L 87.816 48.187 L 87.816 53.229 Z M 96.287 53.365 C 97.881 53.365 99.06 52.345 99.06 50.73 C 99.06 49.134 97.881 48.052 96.287 48.052 C 94.701 48.052 93.522 49.134 93.522 50.73 C 93.522 52.345 94.701 53.365 96.287 53.365 Z M 93.758 34.358 C 91.306 34.358 89.246 36.044 89.246 38.686 C 89.246 41.328 91.306 42.948 93.758 42.948 C 96.222 42.948 98.285 41.328 98.285 38.686 C 98.285 36.044 96.222 34.358 93.758 34.358 Z M 102.343 28.11 L 100.869 26.604 C 100.447 27.009 99.825 27.333 99.17 27.333 C 98.667 27.333 98.158 27.154 98.158 26.684 C 98.158 26.231 98.598 26.101 99.646 25.874 C 100.887 25.598 102.244 24.983 102.244 23.411 C 102.244 21.368 100.429 20.655 98.766 20.655 C 97.441 20.655 96.066 21.093 95.218 21.904 L 96.721 23.476 C 97.194 22.957 97.929 22.567 98.715 22.567 C 99.155 22.567 99.679 22.746 99.679 23.265 C 99.679 23.767 99.17 23.929 98.06 24.188 C 96.932 24.448 95.691 25.015 95.691 26.538 C 95.691 28.467 97.521 29.246 99.071 29.246 C 100.283 29.246 101.542 28.856 102.343 28.11 Z M 102.204 53.229 L 104.042 53.229 C 105.487 53.229 106.95 52.63 106.95 50.722 C 106.95 48.949 105.498 48.187 104.1 48.187 L 102.204 48.187 L 102.204 53.229 Z M 108.067 53.229 L 111.484 53.229 L 111.484 52.196 L 109.253 52.196 L 109.253 51.248 L 111.364 51.248 L 111.364 50.274 L 109.253 50.274 L 109.253 49.228 L 111.615 49.228 L 111.615 48.187 L 108.067 48.187 L 108.067 53.229 Z M 0 60 L 0 26.654 C 0 11.933 12.034 0 26.874 0 L 27.107 0 L 98.263 0 C 113.103 0 125.134 11.933 125.134 26.654 L 125.134 60 L 0 60 Z" fill="currentColor" fill-rule="nonzero"></path>
</svg>